<svg width="348" height="81" viewBox="0 0 348 81" fill="none" xmlns="http://www.w3.org/2000/svg">
<path d="M3.8934 37.6121C3.8934 37.6121 2.85462 52.9931 5.07942 58.2274C7.30422 63.4617 11.5412 67.722 11.5412 67.722V31.6663H0L3.8934 37.6121Z" fill="#F0EBDE"/>
<path d="M39.5638 31.6663V67.722C39.5638 67.722 43.8008 63.4617 46.0256 58.2274C48.2504 52.9931 47.2116 37.6121 47.2116 37.6121L51.105 31.6663H39.5638Z" fill="#F0EBDE"/>
<path fill-rule="evenodd" clip-rule="evenodd" d="M27.8178 6.10352e-05L29.5519 2.71456L27.7284 6.49169V12.0341H51.105V27.739H47.4243C47.425 27.6889 47.5188 20.4369 41.9272 19.8829H30.9018V23.8645H39.1547V28.7697H35.343V72.3198L25.5525 80.5766L15.7613 72.3198V28.7697H11.9504V23.8645H20.2032V19.8829H9.17704C3.59359 20.429 3.68008 27.6894 3.68074 27.739H3.05176e-05V12.0341H23.3687V6.49169L21.5443 2.71456L23.2784 6.10352e-05H27.8178ZM23.5892 71.0775L25.487 73.0966L27.5151 71.0775V28.7697H23.5892V71.0775Z" fill="#F0EBDE"/>
<path d="M290.208 70.1547H283.524L278.066 49.9217L276.428 49.9136V70.1588H269.641V16.4056L269.949 16.1013H278.795L280.597 16.3488C283.94 17.1927 286.85 19.5945 287.644 22.9741C288.438 26.3537 288.286 38.0992 287.92 41.6816C287.821 42.6635 287.397 44.0916 286.953 44.9801C286.319 46.2459 285.228 47.0411 284.462 48.169L290.208 70.1466V70.1547ZM279.614 22.9863C278.758 22.8037 277.358 23.1201 276.428 22.9863V42.9272C278.095 43.694 280.919 43.2761 281.141 41.0893C281.141 41.0893 281.717 30.2039 281.157 25.3151C281.067 24.5077 280.49 23.1729 279.614 22.9863Z" fill="#F0EBDE"/>
<path d="M220.488 70.1547H213.803L208.313 50.2544L208.016 49.9379L206.703 49.9136V70.1588H199.916V16.1013H208.864C214.219 16.1013 217.903 20.3045 218.232 25.3029C218.52 29.7252 218.594 36.9266 218.22 41.3002C218.088 42.8298 217.504 44.55 216.664 45.8402C216.211 46.5299 214.713 47.7795 214.734 48.3597L220.488 70.1507V70.1547ZM206.708 43.2314C208.794 43.3126 211.099 43.41 211.412 40.8783C211.087 35.9691 211.931 30.3459 211.433 25.5179C211.363 24.8201 210.708 22.9863 209.893 22.9863H206.708V43.2314Z" fill="#F0EBDE"/>
<path d="M112.102 70.1547H105.314L99.9924 50.0272L98.5271 49.9095V70.1547H91.7399V16.1013H100.688L102.491 16.3488C113.946 18.6086 109.817 33.6996 109.817 42.2943C109.694 43.3329 108.945 45.0409 108.364 45.9254C107.821 46.7531 106.998 47.3819 106.376 48.1406L112.097 70.1507L112.102 70.1547ZM101.713 22.9863H98.5271V43.2315C100.141 43.2517 102.54 43.4668 103.038 41.4991L103.055 24.9053C103.092 24.3332 102.199 23.0958 101.713 22.9863Z" fill="#F0EBDE"/>
<path d="M300.436 15.9472C305.429 15.1845 309.903 18.1705 311.137 22.9296C310.989 35.2877 312.195 48.656 311.401 60.9491C310.565 73.8793 293.924 73.0273 293.081 61.9594C292.15 49.7717 293.772 36.4277 293.114 24.1224C293.385 20.3452 296.579 16.5355 300.436 15.9472ZM300.559 63.2049C301.753 64.3774 304.235 63.6715 304.4 61.9634V24.4997C304.054 21.6353 300.07 22.1181 299.872 24.7066C300.016 37.2432 299.584 49.8528 300.09 62.3489C300.201 62.641 300.333 62.9818 300.559 63.2009V63.2049Z" fill="#F0EBDE"/>
<path d="M183.263 16.3043V61.7525C183.263 61.9634 183.753 63.0021 183.951 63.2009C185.268 64.5357 187.993 63.5579 187.993 61.7525V16.3043H194.78V61.9553C194.78 66.4425 190.293 70.5281 185.836 70.5768C181.378 70.6255 176.476 66.8442 176.476 62.361V16.3043H183.263Z" fill="#F0EBDE"/>
<path d="M151.385 70.1548H144.598L143.774 63.4726H138.543L137.604 70.1548H130.817L137.794 16.1906C138.049 16.0121 143.503 15.9958 144.079 16.1013C144.313 16.1459 144.499 16.1703 144.565 16.434L151.381 70.1548H151.385ZM142.745 56.5917C142.214 52.5345 141.972 48.38 141.309 44.3432C141.259 44.0429 141.296 43.7184 140.897 43.6372L139.457 56.5917H142.745Z" fill="#F0EBDE"/>
<path d="M321.057 16.1013L323.424 42.6269L325.786 16.1013H332.574L326.815 70.1547L320.325 70.1669L314.27 16.1013H321.057Z" fill="#F0EBDE"/>
<path d="M172.359 30.6787H165.572V24.9095C165.572 24.1345 164.774 22.9012 163.934 22.678C159.954 21.615 160.736 27.2667 161.102 29.5143C163.749 38.1398 169.042 46.8992 171.598 55.4192C173.306 61.1114 172.051 68.8281 165.214 70.3049C160.472 71.3273 154.056 67.6272 154.056 62.5639V54.3644H160.843V61.7524C160.843 61.9269 161.296 62.925 161.456 63.1157C162.423 64.276 164.983 63.7445 165.325 62.3164C165.877 59.9998 165.272 56.9407 164.494 54.7174C161.744 46.8708 156.752 38.2413 154.619 30.4272C153.282 25.518 153.891 19.7406 158.719 16.9453C164.502 13.5981 172.359 18.1584 172.359 24.7025V30.6787Z" fill="#F0EBDE"/>
<path d="M126.907 16.1013V22.9863H122.384V39.7869H126.907V46.4691H122.384V63.4766H126.907V70.1547H115.597V16.1013H126.907Z" fill="#F0EBDE"/>
<path d="M235.087 16.1013V22.9863H230.564V39.7869H235.087V46.4691H230.564V63.4766H235.087V70.1547H223.777V16.1013H235.087Z" fill="#F0EBDE"/>
<path d="M348 16.1013V22.9863H343.473V39.7869H348V46.4691H343.473V63.4766H348V70.1547H336.686V16.1013H348Z" fill="#F0EBDE"/>
<path d="M87.629 16.1013V22.9863H84.4167C83.6903 22.9863 83.1015 23.5751 83.1015 24.3015V70.1547H76.3142V24.3015C76.3142 23.5751 75.7254 22.9863 74.9989 22.9863H71.7908V16.1013H87.629Z" fill="#F0EBDE"/>
<path d="M265.279 16.1013V22.9863H262.067C261.34 22.9863 260.751 23.5751 260.751 24.3015V70.1547H253.964V24.3015C253.964 23.5751 253.375 22.9863 252.649 22.9863H249.441V16.1013H265.279Z" fill="#F0EBDE"/>
</svg>
