<svg width="587" height="293" viewBox="0 0 587 293" fill="none" xmlns="http://www.w3.org/2000/svg">
<path d="M14.2319 140.151C14.2319 140.151 10.4473 193.964 18.5685 212.296C26.6898 230.628 42.1833 245.53 42.1833 245.53V119.375H0L14.2319 140.19V140.151Z" fill="#EDE8E4"/>
<path d="M144.725 119.335V245.491C144.725 245.491 160.218 230.589 168.34 212.257C176.461 193.925 172.676 140.112 172.676 140.112L186.908 119.296H144.686L144.725 119.335Z" fill="#EDE8E4"/>
<path fill-rule="evenodd" clip-rule="evenodd" d="M101.713 0L108.06 9.81648L101.398 23.4965V43.2083H186.868V100.097H173.424C173.424 100.097 173.779 73.6433 153.318 71.6327H113.028V86.0618H143.187V103.842H129.27V261.97L93.4734 291.892L57.6768 261.97V103.881H43.7602V86.1012H73.9193V71.6721H33.6283C13.2069 73.6433 13.5223 99.9389 13.5223 100.136H0V43.2477H85.431V23.5359L78.7684 9.8559L85.1156 0.0394236H101.713V0ZM86.2195 257.515L93.158 264.848L100.57 257.515V103.881H86.2195V257.515Z" fill="#EDE8E4"/>
<path d="M264.136 43.2478V58.1499H256.843C255.424 58.1499 254.241 59.2932 254.241 60.7125V161.637H239.299V60.7519C239.299 59.3326 238.117 58.1894 236.698 58.1894H229.207V43.2872H264.097L264.136 43.2478Z" fill="#EDE8E4"/>
<path d="M317.872 161.637H302.93L291.064 117.285H287.831V161.637H272.89V43.2478H292.838C295.598 43.2478 298.16 43.7997 300.565 44.8642C302.97 45.9286 305.059 47.3479 306.873 49.1219C308.686 50.896 310.106 52.9854 311.17 55.3509C312.234 57.7163 312.786 60.2788 312.786 62.999V97.613C312.786 100.806 312.077 103.763 310.618 106.483C309.317 109.085 307.425 111.332 305.059 113.225L317.833 161.676L317.872 161.637ZM297.884 62.9596C297.884 61.6586 297.332 60.5153 296.268 59.5692C295.322 58.623 294.178 58.1499 292.838 58.1499H287.792V102.502H292.996C294.297 102.383 295.44 101.831 296.426 100.885C297.411 99.939 297.845 98.7957 297.845 97.4947V62.8808L297.884 62.9596Z" fill="#EDE8E4"/>
<path d="M339.99 58.1894V95.0899H350.043V109.834H339.99V146.932H350.043V161.676H325.049V43.2478H350.043V58.1499H339.99V58.1894Z" fill="#EDE8E4"/>
<path d="M403.502 161.637H388.56L386.589 146.892H375.432L373.461 161.637H358.52L373.461 43.2478H388.56L403.502 161.637ZM384.776 131.99L380.991 102.541L377.206 131.99H384.776Z" fill="#EDE8E4"/>
<path d="M358.52 172.636H373.461L375.432 187.38H386.589L388.56 172.636H403.502L388.56 291.025H373.461L358.52 172.636ZM375.432 187.38L380.991 231.732L386.55 187.38H375.393H375.432Z" fill="#EDE8E4"/>
<path d="M449.427 75.3778H434.486V62.2498C434.486 60.9488 434.012 59.8055 433.066 58.8593C432.12 57.7949 430.977 57.243 429.636 57.243C428.217 57.243 426.956 57.7161 425.852 58.6622C424.906 59.6084 424.393 60.7911 424.393 62.2103V69.1489C424.511 71.2778 425.063 73.4067 426.009 75.5355C426.128 75.7721 426.483 76.7182 427.074 78.374C427.784 80.0298 428.651 82.1193 429.597 84.603C430.661 87.0866 431.805 89.9251 433.027 93.1185C434.328 96.1935 435.668 99.3474 436.969 102.541C439.965 110.11 443.395 118.586 447.219 127.93C447.929 129.585 448.402 131.32 448.639 133.094C448.993 134.75 449.23 136.484 449.348 138.259V138.416C449.467 139.954 449.467 141.491 449.348 143.029C449.348 144.448 449.151 145.946 448.796 147.484C448.087 150.086 446.865 152.53 445.209 154.777C443.632 156.906 441.661 158.641 439.256 159.941C436.26 161.716 432.948 162.622 429.36 162.622C426.601 162.622 424.038 162.07 421.633 161.006C419.229 159.941 417.139 158.522 415.326 156.748C413.512 154.974 412.093 152.885 411.028 150.519C409.964 148.154 409.412 145.591 409.412 142.871V127.259H424.354V142.713C424.354 144.014 424.827 145.197 425.812 146.261C426.759 147.208 427.981 147.681 429.4 147.681C430.701 147.799 431.844 147.365 432.83 146.419C433.894 145.355 434.446 144.172 434.446 142.871V135.933C434.446 133.685 433.973 131.478 433.027 129.349C432.909 129.112 432.475 128.166 431.765 126.51C431.174 124.854 430.307 122.765 429.242 120.281C428.296 117.798 427.153 114.999 425.812 111.924C424.63 108.73 423.368 105.537 422.028 102.344C418.913 94.8925 415.444 86.4953 411.58 77.1519C410.871 75.4961 410.319 73.7615 409.964 71.9874C409.727 70.2133 409.53 68.4393 409.412 66.6652V62.0526C409.412 60.5151 409.609 59.017 409.964 57.5978C411.383 52.1573 414.655 47.939 419.662 44.9822C422.658 43.3264 425.891 42.4985 429.36 42.4985C432.12 42.4985 434.683 43.0505 437.088 44.1149C439.611 45.1793 441.779 46.5986 443.553 48.3727C445.366 50.1467 446.746 52.2362 447.692 54.6016C448.757 56.967 449.309 59.5295 449.309 62.2498V75.3778H449.427Z" fill="#EDE8E4"/>
<path d="M498.474 43.2478V142.832C498.474 145.552 497.922 148.115 496.857 150.48C495.911 152.845 494.532 154.935 492.718 156.709C490.905 158.483 488.776 159.902 486.253 160.967C483.848 162.031 481.285 162.583 478.525 162.583C475.766 162.583 473.203 162.031 470.798 160.967C468.394 159.902 466.304 158.483 464.491 156.709C462.677 154.935 461.258 152.845 460.194 150.48C459.129 148.115 458.577 145.552 458.577 142.832V43.2478H473.519V142.832C473.519 144.133 473.992 145.276 474.977 146.222C476.042 147.168 477.264 147.642 478.565 147.642C479.866 147.642 481.009 147.168 481.995 146.222C483.059 145.276 483.611 144.133 483.611 142.832V43.2478H498.553H498.474Z" fill="#EDE8E4"/>
<path d="M554.609 161.637H539.668L527.801 117.285H524.568V161.637H509.627V43.2478H529.575C532.335 43.2478 534.897 43.7997 537.302 44.8642C539.707 45.9286 541.797 47.3479 543.61 49.1219C545.424 50.896 546.843 52.9854 547.907 55.3509C548.972 57.7163 549.524 60.2788 549.524 62.999V97.613C549.524 100.806 548.814 103.763 547.355 106.483C546.054 109.085 544.162 111.332 541.797 113.225L554.57 161.676L554.609 161.637ZM534.661 62.9596C534.661 61.6586 534.109 60.5153 533.045 59.5692C532.098 58.623 530.955 58.1499 529.615 58.1499H524.568V102.502H529.772C531.073 102.383 532.217 101.831 533.202 100.885C534.148 99.939 534.661 98.7957 534.661 97.4947V62.8808V62.9596Z" fill="#EDE8E4"/>
<path d="M576.767 58.1894V95.0899H586.82V109.834H576.767V146.932H586.82V161.676H561.825V43.2478H586.82V58.1499H576.767V58.1894Z" fill="#EDE8E4"/>
<path d="M314.206 291.025H299.185L287.24 246.674H283.968V291.025H268.947V172.636H289.014C291.774 172.636 294.375 173.188 296.78 174.252C299.185 175.317 301.314 176.736 303.128 178.51C304.941 180.284 306.4 182.374 307.464 184.739C308.568 187.104 309.081 189.667 309.081 192.387V227.001C309.081 230.194 308.371 233.151 306.912 235.871C305.572 238.473 303.719 240.721 301.314 242.613L314.166 291.065L314.206 291.025ZM294.139 192.348C294.139 191.047 293.587 189.904 292.523 188.957C291.576 188.011 290.394 187.538 289.093 187.538H284.047V231.89H289.29C290.63 231.771 291.774 231.219 292.72 230.273C293.666 229.327 294.178 228.184 294.178 226.883V192.269L294.139 192.348Z" fill="#EDE8E4"/>
<path d="M336.364 171.926C339.124 171.926 341.726 172.478 344.131 173.543C346.654 174.489 348.822 175.869 350.636 177.643C352.449 179.417 353.829 181.546 354.815 184.029C355.919 186.395 356.431 188.957 356.431 191.677V272.259C356.431 274.98 355.879 277.542 354.815 279.908C353.869 282.273 352.449 284.362 350.636 286.136C348.822 287.911 346.654 289.33 344.131 290.394C341.726 291.459 339.124 292.011 336.364 292.011C333.605 292.011 331.003 291.498 328.598 290.394C326.193 289.33 324.064 287.911 322.251 286.136C320.437 284.362 318.979 282.273 317.914 279.908C316.81 277.542 316.298 274.98 316.298 272.259V191.677C316.298 188.957 316.85 186.395 317.914 184.029C319.018 181.546 320.437 179.417 322.251 177.643C324.064 175.869 326.154 174.489 328.598 173.543C331.003 172.478 333.605 171.926 336.364 171.926ZM341.45 191.638C341.45 190.219 340.898 189.036 339.834 188.09C338.888 187.144 337.744 186.671 336.404 186.671C335.063 186.671 333.881 187.144 332.777 188.09C331.831 189.036 331.318 190.219 331.318 191.638V272.22C331.318 273.521 331.791 274.664 332.777 275.61C333.881 276.557 335.063 277.03 336.404 277.03C337.744 277.03 338.888 276.557 339.834 275.61C340.938 274.664 341.45 273.521 341.45 272.22V191.638Z" fill="#EDE8E4"/>
<path d="M424.514 187.577V224.478H434.645V239.222H424.514V276.32H434.645V291.064H409.493V172.675H434.645V187.577H424.514Z" fill="#EDE8E4"/>
<path d="M264.337 172.636V187.538H257.004C255.546 187.538 254.402 188.681 254.402 190.101V291.025H239.382V190.101C239.382 188.681 238.199 187.538 236.78 187.538H229.25V172.636H264.337Z" fill="#EDE8E4"/>
</svg>
