<svg width="865" height="206" viewBox="0 0 865 206" fill="none" xmlns="http://www.w3.org/2000/svg">
<path d="M9.93487 95.9754C9.93487 95.9754 7.28418 135.223 12.9612 148.58C18.6383 161.936 29.4498 172.807 29.4498 172.807V80.8035H0L9.93487 95.9754Z" fill="#0E0E0E"/>
<path d="M100.956 80.8035V172.807C100.956 172.807 111.767 161.936 117.444 148.58C123.121 135.223 120.471 95.9754 120.471 95.9754L130.406 80.8035H100.956Z" fill="#0E0E0E"/>
<path fill-rule="evenodd" clip-rule="evenodd" d="M70.9832 0L75.4082 6.92663L70.7549 16.5648V30.7074H130.406V70.782H121.013C121.015 70.654 121.255 52.1492 106.986 50.7355H78.8528V60.8952H99.9117V73.4121H90.1853V184.54L65.2028 205.609L40.2182 184.54V73.4121H30.4939V60.8952H51.5528V50.7355H23.4172C9.16975 52.1289 9.39046 70.6553 9.39213 70.782H0V30.7074H59.6303V16.5648L54.975 6.92663L59.4 0H70.9832ZM60.1928 181.37L65.0356 186.522L70.2107 181.37V73.4121H60.1928V181.37Z" fill="#0E0E0E"/>
<path d="M223.274 42.8304V60.2685H214.856C213.199 60.2685 211.856 61.6116 211.856 63.2685V181.297H194.625V63.2685C194.625 61.6116 193.282 60.2685 191.625 60.2685H183V42.8304H223.274Z" fill="#0E0E0E"/>
<path d="M285.254 181.297H268.024L254.322 129.398H250.586V181.297H233.355V42.8304H256.398C259.581 42.8304 262.557 43.4532 265.325 44.6987C268.093 45.9443 270.515 47.6051 272.591 49.6811C274.667 51.757 276.328 54.179 277.573 56.9469C278.819 59.7149 279.442 62.6904 279.442 65.8736V106.355C279.442 110.092 278.611 113.552 276.95 116.735C275.428 119.779 273.283 122.409 270.515 124.623L285.254 181.297ZM262.211 65.8736C262.211 64.3512 261.588 63.0364 260.343 61.9293C259.235 60.8221 257.921 60.2685 256.398 60.2685H250.586V112.168H256.606C258.128 112.029 259.443 111.406 260.55 110.299C261.657 109.192 262.211 107.877 262.211 106.355V65.8736Z" fill="#0E0E0E"/>
<path d="M310.816 60.2685V103.449H322.442V120.679H310.816V164.067H322.442V181.297H293.586V42.8304H322.442V60.2685H310.816Z" fill="#0E0E0E"/>
<path d="M384.09 181.297H366.859L364.576 164.067H351.705L349.421 181.297H332.19L349.421 42.8304H366.859L384.09 181.297ZM362.5 146.629L358.14 112.168L353.781 146.629H362.5Z" fill="#0E0E0E"/>
<path d="M437.113 80.4053H419.882V65.0432C419.882 63.5208 419.329 62.206 418.221 61.0989C417.114 59.8533 415.799 59.2305 414.277 59.2305C412.616 59.2305 411.163 59.7841 409.918 60.8913C408.81 61.9985 408.257 63.3824 408.257 65.0432C408.257 67.8112 408.257 70.5099 408.257 73.1395C408.395 75.6306 409.018 78.1218 410.125 80.6129C410.264 80.8897 410.679 81.9969 411.371 83.9345C412.201 85.8721 413.17 88.294 414.277 91.2004C415.523 94.1067 416.837 97.4283 418.221 101.165C419.744 104.763 421.266 108.431 422.789 112.168C426.248 121.025 430.193 130.92 434.622 141.854C435.452 143.791 436.005 145.798 436.282 147.874C436.697 149.812 436.974 151.819 437.113 153.894V154.102C437.251 155.901 437.251 157.7 437.113 159.5C437.113 161.16 436.905 162.89 436.49 164.69C435.659 167.734 434.276 170.571 432.338 173.201C430.539 175.692 428.255 177.699 425.487 179.221C422.027 181.297 418.221 182.335 414.069 182.335C410.886 182.335 407.911 181.712 405.143 180.467C402.375 179.221 399.953 177.56 397.877 175.485C395.801 173.409 394.14 170.987 392.895 168.219C391.649 165.451 391.026 162.475 391.026 159.292V141.024H408.257V159.084C408.257 160.607 408.81 161.991 409.918 163.236C411.025 164.344 412.409 164.897 414.069 164.897C415.592 165.036 416.907 164.551 418.014 163.444C419.259 162.198 419.882 160.814 419.882 159.292C419.882 156.524 419.882 153.825 419.882 151.196C419.882 148.566 419.329 146.006 418.221 143.515C418.083 143.238 417.599 142.131 416.768 140.193C416.076 138.256 415.107 135.834 413.862 132.927C412.755 130.021 411.44 126.769 409.918 123.17C408.534 119.433 407.08 115.697 405.558 111.96C401.96 103.241 397.946 93.4147 393.517 82.4813C392.687 80.5437 392.064 78.537 391.649 76.461C391.372 74.385 391.165 72.3091 391.026 70.2331C391.026 68.4339 391.026 66.6348 391.026 64.8356C391.026 63.0364 391.234 61.3065 391.649 59.6457C393.31 53.2794 397.047 48.3663 402.859 44.9064C406.319 42.9688 410.056 42 414.069 42C417.253 42 420.228 42.6228 422.996 43.8684C425.902 45.1139 428.394 46.7747 430.47 48.8507C432.546 50.9266 434.137 53.3486 435.244 56.1166C436.49 58.8845 437.113 61.8601 437.113 65.0432V80.4053Z" fill="#0E0E0E"/>
<path d="M493.718 42.8304V159.292C493.718 162.475 493.096 165.451 491.85 168.219C490.743 170.987 489.151 173.409 487.075 175.485C484.999 177.56 482.508 179.221 479.602 180.467C476.834 181.712 473.858 182.335 470.675 182.335C467.492 182.335 464.516 181.712 461.749 180.467C458.981 179.221 456.559 177.56 454.483 175.485C452.407 173.409 450.746 170.987 449.5 168.219C448.255 165.451 447.632 162.475 447.632 159.292V42.8304H464.862V159.292C464.862 160.814 465.416 162.129 466.523 163.236C467.769 164.344 469.153 164.897 470.675 164.897C472.198 164.897 473.512 164.344 474.62 163.236C475.865 162.129 476.488 160.814 476.488 159.292V42.8304H493.718Z" fill="#0E0E0E"/>
<path d="M558.536 181.297H541.305L527.604 129.398H523.867V181.297H506.636V42.8304H529.68C532.863 42.8304 535.838 43.4532 538.606 44.6987C541.374 45.9443 543.796 47.6051 545.872 49.6811C547.948 51.757 549.609 54.179 550.854 56.9469C552.1 59.7149 552.723 62.6904 552.723 65.8736V106.355C552.723 110.092 551.892 113.552 550.232 116.735C548.709 119.779 546.564 122.409 543.796 124.623L558.536 181.297ZM535.492 65.8736C535.492 64.3512 534.87 63.0364 533.624 61.9293C532.517 60.8221 531.202 60.2685 529.68 60.2685H523.867V112.168H529.887C531.41 112.029 532.724 111.406 533.832 110.299C534.939 109.192 535.492 107.877 535.492 106.355V65.8736Z" fill="#0E0E0E"/>
<path d="M584.097 60.2685V103.449H595.723V120.679H584.097V164.067H595.723V181.297H566.867V42.8304H595.723V60.2685H584.097Z" fill="#0E0E0E"/>
<path d="M721.506 181.297H704.275L690.574 129.398H686.837V181.297H669.607V42.8304H692.65C695.833 42.8304 698.809 43.4532 701.577 44.6987C704.345 45.9443 706.767 47.6051 708.843 49.6811C710.919 51.757 712.579 54.179 713.825 56.9469C715.07 59.7149 715.693 62.6904 715.693 65.8736V106.355C715.693 110.092 714.863 113.552 713.202 116.735C711.68 119.779 709.535 122.409 706.767 124.623L721.506 181.297ZM698.463 65.8736C698.463 64.3512 697.84 63.0364 696.594 61.9293C695.487 60.8221 694.172 60.2685 692.65 60.2685H686.837V112.168H692.858C694.38 112.029 695.695 111.406 696.802 110.299C697.909 109.192 698.463 107.877 698.463 106.355V65.8736Z" fill="#0E0E0E"/>
<path d="M749.984 42C753.167 42 756.143 42.6228 758.911 43.8684C761.817 44.9755 764.308 46.5671 766.384 48.6431C768.46 50.719 770.052 53.2102 771.159 56.1166C772.404 58.8845 773.027 61.8601 773.027 65.0432V159.292C773.027 162.475 772.404 165.451 771.159 168.219C770.052 170.987 768.46 173.409 766.384 175.485C764.308 177.56 761.817 179.221 758.911 180.467C756.143 181.712 753.167 182.335 749.984 182.335C746.801 182.335 743.825 181.712 741.057 180.467C738.289 179.221 735.867 177.56 733.791 175.485C731.715 173.409 730.055 170.987 728.809 168.219C727.564 165.451 726.941 162.475 726.941 159.292V65.0432C726.941 61.8601 727.564 58.8845 728.809 56.1166C730.055 53.2102 731.715 50.719 733.791 48.6431C735.867 46.5671 738.289 44.9755 741.057 43.8684C743.825 42.6228 746.801 42 749.984 42ZM755.797 65.0432C755.797 63.3824 755.174 61.9985 753.928 60.8913C752.821 59.7841 751.506 59.2305 749.984 59.2305C748.462 59.2305 747.078 59.7841 745.832 60.8913C744.725 61.9985 744.171 63.3824 744.171 65.0432V159.292C744.171 160.814 744.725 162.129 745.832 163.236C747.078 164.344 748.462 164.897 749.984 164.897C751.506 164.897 752.821 164.344 753.928 163.236C755.174 162.129 755.797 160.814 755.797 159.292V65.0432Z" fill="#0E0E0E"/>
<path d="M825.273 42.8304L810.949 181.297H793.511L779.187 42.8304H796.417L802.23 112.168L808.043 42.8304H825.273Z" fill="#0E0E0E"/>
<path d="M852.691 60.2685V103.449H864.316V120.679H852.691V164.067H864.316V181.297H835.46V42.8304H864.316V60.2685H852.691Z" fill="#0E0E0E"/>
<path d="M664.274 42.8303V60.2684H655.856C654.199 60.2684 652.856 61.6116 652.856 63.2684V181.297H635.625V63.2684C635.625 61.6116 634.282 60.2684 632.625 60.2684H624V42.8303H664.274Z" fill="#0E0E0E"/>
</svg>
