<svg width="187" height="292" viewBox="0 0 187 292" fill="none" xmlns="http://www.w3.org/2000/svg">
<path d="M14.2319 140.151C14.2319 140.151 10.4473 193.964 18.5685 212.296C26.6898 230.628 42.1833 245.53 42.1833 245.53V119.375H0L14.2319 140.19V140.151Z" fill="#0E0E0E"/>
<path d="M144.725 119.335V245.491C144.725 245.491 160.218 230.589 168.34 212.257C176.461 193.925 172.676 140.112 172.676 140.112L186.908 119.296H144.686L144.725 119.335Z" fill="#0E0E0E"/>
<path fill-rule="evenodd" clip-rule="evenodd" d="M101.713 0L108.06 9.81648L101.398 23.4965V43.2083H186.868V100.097H173.424C173.424 100.097 173.779 73.6433 153.318 71.6327H113.028V86.0618H143.187V103.842H129.27V261.97L93.4734 291.892L57.6768 261.97V103.881H43.7602V86.1012H73.9193V71.6721H33.6283C13.2069 73.6433 13.5223 99.9389 13.5223 100.136H0V43.2477H85.431V23.5359L78.7684 9.8559L85.1156 0.0394236H101.713V0ZM86.2195 257.515L93.158 264.848L100.57 257.515V103.881H86.2195V257.515Z" fill="#0E0E0E"/>
</svg>
